<svg id="Livello_1" data-name="Livello 1" xmlns="http://www.w3.org/2000/svg" viewBox="0 0 83.82642 20.22656"><line y1="10.11328" x2="74.91138" y2="10.11328" fill="none" stroke="#000" stroke-miterlimit="10" stroke-width="2"/><path d="M73.303,0A31.06236,31.06236,0,0,0,83.82642,10.11328,32.27086,32.27086,0,0,0,73.303,20.22656h-2.4961A35.05032,35.05032,0,0,1,80.469,10.11328,35.62035,35.62035,0,0,1,70.76587,0Z"/><path d="M67.2854,0A31.07408,31.07408,0,0,0,77.80688,10.11328,32.26477,32.26477,0,0,0,67.2854,20.22656H64.78931a35.06945,35.06945,0,0,1,9.66015-10.11328A35.65334,35.65334,0,0,1,64.74829,0Z"/></svg>